<svg width="32" height="32" viewBox="0 0 32 32" fill="none" xmlns="http://www.w3.org/2000/svg">
<path d="M16 29.3334C8.63621 29.3334 2.66667 23.3639 2.66667 16.0001C2.66667 8.63628 8.63621 2.66675 16 2.66675C23.3638 2.66675 29.3333 8.63628 29.3333 16.0001C29.3253 23.3605 23.3605 29.3253 16 29.3334ZM9.49334 24.7267L9.48667 24.7401C12.5307 27.0205 16.5457 27.5429 20.072 26.1174C19.5666 23.3991 18.8173 20.7319 17.8333 18.1481C15.5733 18.9361 13.507 20.1965 11.772 21.8454C10.917 22.655 10.1768 23.5778 9.57201 24.5881L9.56267 24.6027V24.5894L9.53867 24.6361L9.52267 24.6627L9.51334 24.6801L9.49067 24.7281L9.49334 24.7267ZM22.372 17.3934C21.7156 17.3943 21.0599 17.4389 20.4093 17.5267C21.2589 19.9008 21.9275 22.3357 22.4093 24.8107C24.6752 23.1774 26.2153 20.7252 26.7027 17.9747C25.2921 17.5856 23.8353 17.3887 22.372 17.3894V17.3934ZM5.08934 15.9401V16.0147C5.09177 18.5835 6.0007 21.0691 7.65601 23.0334C9.80038 19.7208 12.9724 17.2031 16.6853 15.8667L16.844 15.8214C16.608 15.3001 16.3867 14.8347 16.1653 14.4001C12.6079 15.3975 8.93321 15.9155 5.23867 15.9401H5.08934ZM21.9547 15.1321C23.6091 15.1382 25.2598 15.289 26.888 15.5827C26.8032 13.3273 26.0143 11.155 24.632 9.37075C23.019 11.1747 21.0113 12.5819 18.7653 13.4827L18.804 13.4667L18.7627 13.4841C19.0013 13.9814 19.2107 14.4467 19.3853 14.8614C19.4267 14.9601 19.4613 15.0454 19.4933 15.1281L19.548 15.2614C20.3471 15.1727 21.1506 15.1296 21.9547 15.1321ZM11.1693 6.23608C8.26975 7.66725 6.15492 10.3115 5.39601 13.4547C8.50318 13.4067 11.5954 13.0141 14.616 12.2841H14.6333H14.6533L14.6667 12.2667L14.7387 12.2494H14.7467L14.8 12.2387H14.812H14.8213L14.8493 12.2307L14.9027 12.2174L14.9333 12.2041L14.9627 12.1961H14.976H14.9893C13.212 9.06675 11.372 6.51608 11.168 6.23608H11.1693ZM16 5.11871C15.2701 5.11691 14.5418 5.18612 13.8253 5.32541C15.2222 7.26086 16.5039 9.27679 17.664 11.3627C19.7415 10.6228 21.5944 9.36217 23.0453 7.70141C21.0756 6.03554 18.5798 5.12063 16 5.11871Z" fill="#B9BCC6"/>
</svg>
