<svg width="32" height="32" viewBox="0 0 32 32" fill="none" xmlns="http://www.w3.org/2000/svg">
<path d="M16.0347 2.66675C9.51058 2.66591 3.94909 7.3974 2.90453 13.8373C1.85998 20.2772 5.64079 26.5241 11.8307 28.5854C12.4973 28.7054 12.736 28.2961 12.736 27.9441C12.736 27.6281 12.7253 26.7907 12.7213 25.6774C9.02133 26.4774 8.24 23.8934 8.24 23.8934C7.99642 23.0894 7.47277 22.3992 6.764 21.9481C5.564 21.1228 6.856 21.1414 6.856 21.1414C7.71024 21.2585 8.46207 21.7647 8.892 22.5121C9.25591 23.1738 9.86901 23.6627 10.5951 23.8702C11.3211 24.0778 12.1 23.9868 12.7587 23.6174C12.8206 22.9428 13.1207 22.3122 13.6053 21.8387C10.6533 21.5041 7.54933 20.3628 7.54933 15.2654C7.53295 13.947 8.02253 12.6725 8.91733 11.7041C8.51247 10.5565 8.56015 9.29775 9.05067 8.18408C9.05067 8.18408 10.1667 7.82542 12.7067 9.54542C14.8851 8.94809 17.1842 8.94809 19.3627 9.54542C21.904 7.82408 23.0187 8.18408 23.0187 8.18408C23.5115 9.29723 23.5592 10.5568 23.152 11.7041C24.0501 12.6724 24.5393 13.9503 24.5173 15.2707C24.5173 20.3814 21.4107 21.5041 18.448 21.8334C19.0871 22.4868 19.4149 23.3832 19.348 24.2947C19.348 26.0734 19.332 27.5081 19.332 27.9441C19.332 28.3001 19.5693 28.7134 20.248 28.5827C26.4353 26.5179 30.2121 20.2707 29.1654 13.8325C28.1186 7.39429 22.5574 2.66526 16.0347 2.66675Z" fill="#B9BCC6"/>
</svg>
